<svg width="31" height="32" viewBox="0 0 31 32" fill="none" xmlns="http://www.w3.org/2000/svg">
<path fill-rule="evenodd" clip-rule="evenodd" d="M10.6279 0C10.9424 0 11.2171 0.233745 11.2586 0.554907L12.1017 7.40147C12.1077 7.44837 12.1085 7.49474 12.1045 7.53998L12.2924 9.06672C12.7786 8.92715 13.2245 8.83888 13.5943 8.78287C13.9184 8.73379 14.187 8.70905 14.3771 8.69656C14.4722 8.69031 14.5479 8.68711 14.6013 8.68547C14.6257 8.68473 14.6454 8.68431 14.6603 8.68407C14.6774 8.68263 14.7013 8.68075 14.7315 8.67869C14.7926 8.67451 14.8796 8.66953 14.9893 8.66578C15.2083 8.6583 15.5187 8.6557 15.893 8.67441C16.4931 8.7044 17.2672 8.78962 18.0976 9.00223L18.8557 2.84517C18.8616 2.79987 18.8721 2.75631 18.8867 2.7149L18.9594 2.12413H18.9595L19.1527 0.554907C19.1942 0.233745 19.469 0 19.7834 0C19.8104 0 19.8377 0.00178121 19.8651 0.00521677C20.2137 0.0502608 20.4597 0.369259 20.4147 0.71765L19.5717 7.56422C19.5658 7.6097 19.5553 7.65344 19.5406 7.69501L19.3296 9.40881C21.171 10.1675 23.0157 11.6785 23.6551 14.5939H29.1387V3.39656H20.854L21.0106 2.12413H29.7749C30.1262 2.12413 30.4111 2.40898 30.4111 2.76035V15.2302C30.4111 15.5815 30.1262 15.8664 29.7749 15.8664H23.1279C22.8152 15.8664 22.5488 15.6391 22.4997 15.3302C22.018 12.3064 20.1298 10.9845 18.3153 10.39C17.3961 10.0889 16.5002 9.97878 15.8295 9.94525C15.4956 9.92856 15.2213 9.93103 15.0327 9.93747C14.9385 9.94069 14.866 9.94489 14.8184 9.94814C14.7947 9.94977 14.7772 9.95116 14.7664 9.95207L14.7552 9.95304L14.7544 9.95311L14.7539 9.95316L14.7536 9.95319L14.7535 9.9532C14.7333 9.95517 14.713 9.95617 14.6927 9.95619H14.6921L14.6917 9.9562L14.683 9.9563L14.6584 9.9568L14.6403 9.95731C14.6008 9.95852 14.54 9.96103 14.4605 9.96625C14.3016 9.9767 14.069 9.99792 13.7849 10.041C13.2145 10.1273 12.4476 10.2999 11.6535 10.642C10.0809 11.3194 8.41262 12.6499 7.90892 15.347C7.85268 15.6481 7.58984 15.8664 7.28352 15.8664H0.636215C0.284843 15.8664 0 15.5815 0 15.2302V11.3103V8.52883V5.89922V2.76035C0 2.40898 0.284843 2.12413 0.636215 2.12413H9.40042L9.55709 3.39656H1.27243V5.26301H4.25819C4.60956 5.26301 4.8944 5.54785 4.8944 5.89922C4.8944 6.25059 4.60956 6.53544 4.25819 6.53544H1.27243V7.89261H4.25819C4.60956 7.89261 4.8944 8.17745 4.8944 8.52883C4.8944 8.8802 4.60956 9.16504 4.25819 9.16504H1.27243V10.6741H4.25819C4.60956 10.6741 4.8944 10.9589 4.8944 11.3103C4.8944 11.6617 4.60956 11.9465 4.25819 11.9465H1.27243V14.5939H6.77074C7.4732 11.7616 9.34215 10.2719 11.0739 9.50662C11.0639 9.47349 11.0565 9.43911 11.0519 9.40366L10.2089 2.5571C10.2029 2.51058 10.2021 2.4646 10.206 2.41972L10.1696 2.12413H10.1698L9.99657 0.717651C9.95165 0.369259 10.1977 0.050261 10.5463 0.00521701C10.5736 0.00178145 10.601 0 10.6279 0ZM2.70203 31.786C2.82277 31.9221 2.996 32 3.17794 32H15.9948C16.0624 32 16.1276 31.9894 16.1887 31.9699C16.2499 31.9894 16.3151 32 16.3827 32C16.7341 32 17.019 31.7151 17.019 31.3638V28.0905L14.665 23.5734V19.8695C14.665 19.5182 14.3801 19.2333 14.0288 19.2333C13.6774 19.2333 13.3925 19.5182 13.3925 19.8695V23.885L15.7465 28.4021V30.7275H3.89507L4.04889 29.4457L4.32305 28.9622H11.5345C11.8859 28.9622 12.1708 28.6774 12.1708 28.326C12.1708 27.9746 11.8859 27.6898 11.5345 27.6898H5.04462L5.87892 26.2186C5.94363 26.2407 6.01303 26.2528 6.08525 26.2528H9.70723C10.0586 26.2528 10.3434 25.9679 10.3434 25.6165C10.3434 25.2652 10.0586 24.9803 9.70723 24.9803H6.5811L7.3175 23.6817H8.8322C9.18357 23.6817 9.46842 23.3969 9.46842 23.0455C9.46842 22.6942 9.18357 22.4093 8.8322 22.4093H8.00366L9.83391 15.9769C9.8394 15.9577 9.84397 15.9381 9.84762 15.9184C10.2132 13.9396 11.4284 12.9685 12.5821 12.4707C13.1668 12.2184 13.733 12.0907 14.1551 12.0267C14.3651 11.9948 14.5365 11.9792 14.653 11.9716C14.7111 11.9677 14.7553 11.9659 14.7835 11.9651L14.8133 11.9643L14.8174 11.9643H14.818H14.8185L14.8188 11.9643C14.839 11.9643 14.8591 11.9633 14.8792 11.9613L14.8793 11.9613L14.8796 11.9613L14.8798 11.9613L14.8871 11.9606C14.8945 11.96 14.9069 11.959 14.9241 11.9578C14.9584 11.9555 15.0114 11.9524 15.0808 11.95C15.2196 11.9453 15.4227 11.9435 15.6702 11.9559C16.1681 11.9808 16.8308 12.0627 17.5084 12.2851C18.8396 12.7221 20.2117 13.6845 20.5606 15.9017C20.5648 15.9282 20.5706 15.9544 20.5781 15.9802L22.4231 22.3372C22.4364 22.3832 22.4549 22.4276 22.4783 22.4694L26.3619 29.4431L26.516 30.7275H18.023C17.6716 30.7275 17.3868 31.0124 17.3868 31.3638C17.3868 31.7151 17.6716 32 18.023 32H27.2331C27.415 32 27.5883 31.9221 27.709 31.786C27.8298 31.6499 27.8865 31.4686 27.8648 31.288L27.6103 29.1672C27.6005 29.0851 27.5747 29.0057 27.5345 28.9335L23.625 21.9133L21.811 15.6633C21.358 12.8827 19.554 11.6174 17.9052 11.0762C17.0888 10.8082 16.307 10.7138 15.7339 10.685C15.4459 10.6706 15.2068 10.6726 15.0374 10.6784C14.9526 10.6812 14.885 10.6851 14.8372 10.6884C14.8164 10.6898 14.7993 10.6911 14.7861 10.6922L14.7445 10.6932C14.7024 10.6945 14.6434 10.697 14.5695 10.7019C14.4219 10.7116 14.2144 10.7307 13.9644 10.7686C13.4665 10.8441 12.7888 10.9956 12.078 11.3024C10.6464 11.9201 9.07069 13.1787 8.60201 15.657L6.78591 22.0396L2.87901 28.9292C2.8374 29.0025 2.81079 29.0835 2.80075 29.1672L2.54626 31.288C2.52458 31.4686 2.58128 31.6499 2.70203 31.786ZM18.0336 3.39656H12.3775L12.2208 2.12413H18.1903L18.0336 3.39656Z" fill="#373535"/>
</svg>
